<svg xmlns="http://www.w3.org/2000/svg" width="10" height="18" fill="none"><path fill="#fff" d="M2.973 10.139H.783c-.344-.001-.467-.125-.467-.471V6.996c0-.342.13-.473.47-.473h2.187v-1.94c0-.875.156-1.713.6-2.48C4.03 1.318 4.693.78 5.542.47A4.863 4.863 0 0 1 7.227.19c.723 0 1.445 0 2.167.002.31 0 .448.138.449.45a791.3 791.3 0 0 1 0 2.513c0 .316-.133.443-.45.447-.592.006-1.184.002-1.776.026-.597 0-.91.291-.91.91-.015.653-.007 1.308-.007 1.985h2.55c.36 0 .484.124.484.487v2.657c-.001.358-.117.472-.48.472H6.692v7.17c0 .381-.12.503-.497.503H3.436c-.333 0-.463-.13-.463-.462v-7.21Z"/></svg>