<svg xmlns="http://www.w3.org/2000/svg" width="18" height="18" fill="none"><path fill="#fff" fill-opacity=".18" d="M4.408 1.229H1.386l12.52 15.542h3.023L4.408 1.23Z"/><path stroke="#fff" stroke-linecap="round" stroke-linejoin="round" stroke-width="1.457" d="M4.408 1.229H1.386l12.52 15.542h3.023L4.408 1.23Z"/><path fill="#fff" d="M1.013 15.427a1.214 1.214 0 0 0 1.717 1.717l-1.717-1.717ZM17.302 2.573A1.214 1.214 0 0 0 15.584.856l1.718 1.717ZM2.73 17.144l6.429-6.428L7.44 8.999l-6.428 6.428 1.717 1.717Zm8.143-8.143 6.429-6.428L15.584.856 9.156 7.284l1.717 1.717Z"/></svg>